<svg width="22" height="22" viewBox="0 0 22 22" fill="none" xmlns="http://www.w3.org/2000/svg">
<g clip-path="url(#clip0_703_624)">
<path d="M9.1665 10.0835V7.3335L13.7498 11.0002L9.1665 14.6668V11.9168H0.916504V10.0835H9.1665Z" fill="black"/>
<path d="M2.25317 13.7502H4.20017C4.84005 15.326 6.00757 16.6305 7.50303 17.4406C8.99849 18.2507 10.729 18.516 12.3984 18.1912C14.0679 17.8663 15.5726 16.9715 16.6552 15.6598C17.7378 14.3481 18.331 12.7009 18.3333 11.0002C18.3343 9.2976 17.7428 7.64776 16.6603 6.33362C15.5779 5.01947 14.0719 4.12292 12.4006 3.79774C10.7294 3.47256 8.99713 3.73901 7.50089 4.55139C6.00464 5.36377 4.83769 6.67146 4.20017 8.25016H2.25317C3.42101 4.53125 6.89517 1.8335 11 1.8335C16.0628 1.8335 20.1667 5.93741 20.1667 11.0002C20.1667 16.0629 16.0628 20.1668 11 20.1668C6.89517 20.1668 3.42101 17.4691 2.25317 13.7502Z" fill="black"/>
</g>
<defs>
<clipPath id="clip0_703_624">
<rect width="22" height="22" fill="white"/>
</clipPath>
</defs>
</svg>
