<svg width="65" height="65" viewBox="0 0 65 65" fill="none" xmlns="http://www.w3.org/2000/svg">
<rect width="65" height="65" rx="20" fill="black"/>
<path d="M32.5002 38.5416C33.1411 38.5416 33.7558 38.287 34.209 37.8338C34.6622 37.3805 34.9168 36.7659 34.9168 36.1249C34.9168 35.484 34.6622 34.8693 34.209 34.4161C33.7558 33.9629 33.1411 33.7083 32.5002 33.7083C31.8592 33.7083 31.2445 33.9629 30.7913 34.4161C30.3381 34.8693 30.0835 35.484 30.0835 36.1249C30.0835 36.7659 30.3381 37.3805 30.7913 37.8338C31.2445 38.287 31.8592 38.5416 32.5002 38.5416ZM39.7502 27.6666C40.3911 27.6666 41.0058 27.9212 41.459 28.3744C41.9122 28.8276 42.1668 29.4423 42.1668 30.0833V42.1666C42.1668 42.8075 41.9122 43.4222 41.459 43.8754C41.0058 44.3286 40.3911 44.5833 39.7502 44.5833H25.2502C24.6092 44.5833 23.9945 44.3286 23.5413 43.8754C23.0881 43.4222 22.8335 42.8075 22.8335 42.1666V30.0833C22.8335 29.4423 23.0881 28.8276 23.5413 28.3744C23.9945 27.9212 24.6092 27.6666 25.2502 27.6666H26.4585V25.2499C26.4585 23.6476 27.095 22.1108 28.2281 20.9778C29.3611 19.8448 30.8978 19.2083 32.5002 19.2083C33.2936 19.2083 34.0792 19.3645 34.8122 19.6681C35.5452 19.9718 36.2112 20.4168 36.7723 20.9778C37.3333 21.5388 37.7783 22.2049 38.0819 22.9379C38.3856 23.6709 38.5418 24.4565 38.5418 25.2499V27.6666H39.7502ZM32.5002 21.6249C31.5388 21.6249 30.6167 22.0068 29.9369 22.6867C29.2571 23.3665 28.8752 24.2885 28.8752 25.2499V27.6666H36.1252V25.2499C36.1252 24.2885 35.7432 23.3665 35.0634 22.6867C34.3836 22.0068 33.4616 21.6249 32.5002 21.6249Z" fill="white"/>
</svg>
