<svg width="65" height="65" viewBox="0 0 65 65" fill="none" xmlns="http://www.w3.org/2000/svg">
<rect width="65" height="65" rx="20" fill="#2D5BFF"/>
<path d="M32.4999 36.7293C31.3783 36.7293 30.3026 36.2837 29.5095 35.4906C28.7163 34.6974 28.2708 33.6217 28.2708 32.5001C28.2708 31.3784 28.7163 30.3027 29.5095 29.5096C30.3026 28.7165 31.3783 28.2709 32.4999 28.2709C33.6216 28.2709 34.6973 28.7165 35.4904 29.5096C36.2835 30.3027 36.7291 31.3784 36.7291 32.5001C36.7291 33.6217 36.2835 34.6974 35.4904 35.4906C34.6973 36.2837 33.6216 36.7293 32.4999 36.7293V36.7293ZM41.4778 33.6722C41.5262 33.2855 41.5624 32.8988 41.5624 32.5001C41.5624 32.1013 41.5262 31.7026 41.4778 31.2918L44.0274 29.3222C44.257 29.1409 44.3174 28.8147 44.1724 28.5488L41.7558 24.368C41.6108 24.1022 41.2845 23.9934 41.0187 24.1022L38.0099 25.3105C37.3816 24.8393 36.7291 24.4284 35.9678 24.1263L35.5208 20.9243C35.4962 20.7819 35.4221 20.6529 35.3115 20.56C35.2009 20.4671 35.061 20.4164 34.9166 20.4168H30.0833C29.7812 20.4168 29.5274 20.6343 29.4791 20.9243L29.032 24.1263C28.2708 24.4284 27.6183 24.8393 26.9899 25.3105L23.9812 24.1022C23.7153 23.9934 23.3891 24.1022 23.2441 24.368L20.8274 28.5488C20.6703 28.8147 20.7428 29.1409 20.9724 29.3222L23.522 31.2918C23.4737 31.7026 23.4374 32.1013 23.4374 32.5001C23.4374 32.8988 23.4737 33.2855 23.522 33.6722L20.9724 35.678C20.7428 35.8593 20.6703 36.1855 20.8274 36.4513L23.2441 40.6322C23.3891 40.898 23.7153 40.9947 23.9812 40.898L26.9899 39.6776C27.6183 40.1609 28.2708 40.5718 29.032 40.8738L29.4791 44.0759C29.5274 44.3659 29.7812 44.5834 30.0833 44.5834H34.9166C35.2187 44.5834 35.4724 44.3659 35.5208 44.0759L35.9678 40.8738C36.7291 40.5597 37.3816 40.1609 38.0099 39.6776L41.0187 40.898C41.2845 40.9947 41.6108 40.898 41.7558 40.6322L44.1724 36.4513C44.3174 36.1855 44.257 35.8593 44.0274 35.678L41.4778 33.6722V33.6722Z" fill="#F9FAFB"/>
</svg>
