<svg width="32" height="32" viewBox="0 0 32 32" fill="none" xmlns="http://www.w3.org/2000/svg">
<path d="M29.9468 7.99992C28.9201 8.46658 27.8135 8.77325 26.6668 8.91992C27.8401 8.21325 28.7468 7.09325 29.1735 5.74659C28.0668 6.41325 26.8401 6.87992 25.5468 7.14659C24.4935 5.99992 23.0135 5.33325 21.3335 5.33325C18.2001 5.33325 15.6401 7.89325 15.6401 11.0533C15.6401 11.5066 15.6935 11.9466 15.7868 12.3599C11.0401 12.1199 6.81347 9.83992 4.00013 6.38659C3.5068 7.22658 3.2268 8.21325 3.2268 9.25325C3.2268 11.2399 4.2268 12.9999 5.77347 13.9999C4.8268 13.9999 3.9468 13.7333 3.17347 13.3333V13.3733C3.17347 16.1466 5.1468 18.4666 7.76013 18.9866C6.9211 19.2162 6.04026 19.2481 5.1868 19.0799C5.54894 20.2166 6.25818 21.2111 7.21482 21.9238C8.17146 22.6365 9.3274 23.0315 10.5201 23.0533C8.49831 24.6538 5.99213 25.519 3.41347 25.5066C2.96013 25.5066 2.5068 25.4799 2.05347 25.4266C4.5868 27.0532 7.60013 27.9999 10.8268 27.9999C21.3335 27.9999 27.1068 19.2799 27.1068 11.7199C27.1068 11.4666 27.1068 11.2266 27.0935 10.9733C28.2135 10.1733 29.1735 9.15992 29.9468 7.99992V7.99992Z" fill="#333333"/>
</svg>
